# xmcd CD database file
#
# Track frame offsets:
#	183
#	15273
#	44438
#	65553
#	90020
#	114615
#	140810
#	169620
#	196868
#	229875
#	263415
#	293245
#
# Disc length: 4254 seconds
#
# Revision: 0
# Processed by: cddbd v1.5PL3 Copyright (c) Steve Scherf et al.
# Submitted via: CDex 1.51
#
DISCID=9b109c0c
DTITLE=Various Artist - Dance with Cuban Passion - Do the Cubanacan vol. II
DYEAR=1900
DGENRE=Salsa
TTITLE0=Oh, cuba - Beverly Beat
TTITLE1=Que Sorpressa! - Juan Formell y los Van Van
TTITLE2=Quien ha visto por ahi mi sombrero de yarey? - Orchesta original de Manzanillo
TTITLE3=Disco Azúcar - Juan Formell y los Van Van
TTITLE4=Mi salsa tiene sandunga - Orquesta Revé
TTITLE5=Fiebre de Amor - Charanga Habanera
TTITLE6=Hierbero, ven - Juan Formell y los Van Van
TTITLE7=Tremendo chu-chu-chu - Orquestra Revé
TTITLE8=Que le den candela - Juan Formell y los Van Van
TTITLE9=Viejo Lazaro - Juan Carlos y el Dan Den
TTITLE10=Siempre hay un ojo que te ve - Juan Carlos y el Dan Den
TTITLE11=Soy normal, natural - Juan Formell y los Van Van
EXTD=
EXTT0=
EXTT1=
EXTT2=
EXTT3=
EXTT4=
EXTT5=
EXTT6=
EXTT7=
EXTT8=
EXTT9=
EXTT10=
EXTT11=
PLAYORDER=
